<svg width="400" height="400" viewBox="0 0 400 400" fill="none" xmlns="http://www.w3.org/2000/svg">
<path d="M183.333 255.965H182.483C178.288 255.965 174.265 254.299 171.299 251.332C168.333 248.366 166.667 244.343 166.667 240.148C166.667 235.728 164.911 231.489 161.785 228.363C158.659 225.238 154.42 223.482 150 223.482C145.58 223.482 141.34 225.238 138.215 228.363C135.089 231.489 133.333 235.728 133.333 240.148C133.333 253.184 138.512 265.685 147.729 274.903C156.946 284.12 169.448 289.298 182.483 289.298H183.333V305.965C183.333 310.385 185.089 314.625 188.215 317.75C191.34 320.876 195.58 322.632 200 322.632C204.42 322.632 208.659 320.876 211.785 317.75C214.911 314.625 216.667 310.385 216.667 305.965V289.298C229.927 289.298 242.645 284.03 252.022 274.654C261.399 265.277 266.667 252.559 266.667 239.298C266.667 226.038 261.399 213.32 252.022 203.943C242.645 194.566 229.927 189.298 216.667 189.298V155.965H217.033C226.033 155.965 233.333 163.265 233.333 172.265C233.333 176.685 235.089 180.925 238.215 184.05C241.34 187.176 245.58 188.932 250 188.932C254.42 188.932 258.659 187.176 261.785 184.05C264.911 180.925 266.667 176.685 266.667 172.265C266.667 159.101 261.437 146.477 252.129 137.169C242.821 127.861 230.197 122.632 217.033 122.632H216.667V105.965C216.667 101.545 214.911 97.3055 211.785 94.1799C208.659 91.0543 204.42 89.2983 200 89.2983C195.58 89.2983 191.34 91.0543 188.215 94.1799C185.089 97.3055 183.333 101.545 183.333 105.965V122.632C176.767 122.632 170.265 123.925 164.199 126.438C158.133 128.95 152.621 132.633 147.978 137.276C143.335 141.919 139.652 147.431 137.139 153.497C134.627 159.564 133.333 166.066 133.333 172.632C133.333 179.198 134.627 185.7 137.139 191.766C139.652 197.832 143.335 203.344 147.978 207.987C152.621 212.63 158.133 216.313 164.199 218.826C170.265 221.338 176.767 222.632 183.333 222.632V255.965ZM216.667 255.965V222.632C221.087 222.632 225.326 224.388 228.452 227.513C231.577 230.639 233.333 234.878 233.333 239.298C233.333 243.719 231.577 247.958 228.452 251.083C225.326 254.209 221.087 255.965 216.667 255.965ZM183.333 155.965V189.298C178.913 189.298 174.674 187.542 171.548 184.417C168.423 181.291 166.667 177.052 166.667 172.632C166.667 168.211 168.423 163.972 171.548 160.847C174.674 157.721 178.913 155.965 183.333 155.965V155.965ZM200 372.632C107.95 372.632 33.3333 298.015 33.3333 205.965C33.3333 113.915 107.95 39.2983 200 39.2983C292.05 39.2983 366.667 113.915 366.667 205.965C366.667 298.015 292.05 372.632 200 372.632Z" fill="#094166"/>
</svg>
