<svg width="339" height="339" viewBox="0 0 339 339" fill="none" xmlns="http://www.w3.org/2000/svg">
<path d="M222.469 42.375C203.474 42.375 186.259 45.9345 172.805 52.6403C159.362 59.3462 148.312 70.2683 148.312 84.75V127.125C148.312 128.492 148.768 129.816 148.98 131.098C138.376 128.403 127.472 127.068 116.531 127.125C97.5367 127.125 80.3218 130.684 66.8677 137.39C53.4243 144.096 42.375 155.018 42.375 169.5V254.25C42.375 268.732 53.4243 279.654 66.8783 286.36C80.3218 293.066 97.5367 296.625 116.531 296.625C135.526 296.625 152.741 293.066 166.195 286.36C179.628 279.654 190.688 268.732 190.688 254.25V249.949C201.051 252.751 211.734 254.196 222.469 254.25C241.463 254.25 258.678 250.691 272.132 243.985C285.565 237.279 296.625 226.357 296.625 211.875V84.75C296.625 70.2683 285.576 59.3462 272.122 52.6403C258.689 45.9345 241.474 42.375 222.469 42.375ZM222.469 63.5625C238.603 63.5625 252.968 67.0373 262.524 71.8362C272.09 76.6352 275.438 81.6884 275.438 84.75C275.438 87.8222 272.09 92.8648 262.524 97.6638C252.979 102.463 238.603 105.938 222.469 105.938C206.334 105.938 191.969 102.463 182.414 97.6638C172.848 92.8648 169.5 87.8116 169.5 84.75C169.5 81.6778 172.848 76.6352 182.414 71.8362C191.959 67.0373 206.334 63.5625 222.469 63.5625ZM169.5 114.879C170.612 115.493 171.651 116.288 172.816 116.86C186.259 123.566 203.474 127.125 222.469 127.125C241.463 127.125 258.678 123.566 272.132 116.86C273.287 116.288 274.325 115.493 275.438 114.879V127.125C275.438 130.197 272.09 135.24 262.524 140.039C252.968 144.838 238.603 148.312 222.469 148.312C206.334 148.312 191.969 144.838 182.414 140.039C172.848 135.24 169.5 130.187 169.5 127.125V114.879ZM116.531 148.312C132.666 148.312 147.031 151.787 156.586 156.586C166.152 161.385 169.5 166.438 169.5 169.5C169.5 172.572 166.152 177.615 156.586 182.414C147.031 187.213 132.666 190.688 116.531 190.688C100.397 190.688 86.0318 187.213 76.4763 182.414C66.9101 177.615 63.5625 172.562 63.5625 169.5C63.5625 166.428 66.9101 161.385 76.4763 156.586C86.0212 151.787 100.397 148.312 116.531 148.312ZM275.438 157.254V169.5C275.438 172.572 272.09 177.615 262.524 182.414C252.968 187.213 238.603 190.688 222.469 190.688C211.677 190.746 200.946 189.068 190.688 185.719V169.5C190.688 168.133 190.232 166.809 190.02 165.527C199.872 168.091 210.794 169.5 222.469 169.5C241.463 169.5 258.678 165.941 272.132 159.235C273.287 158.663 274.325 157.868 275.438 157.254V157.254ZM63.5625 199.629C64.6748 200.243 65.713 201.038 66.8783 201.61C80.3218 208.316 97.5367 211.875 116.531 211.875C135.526 211.875 152.741 208.316 166.195 201.61C167.349 201.038 168.388 200.243 169.5 199.629V211.875C169.5 214.947 166.152 219.99 156.586 224.789C147.031 229.588 132.666 233.062 116.531 233.062C100.397 233.062 86.0318 229.588 76.4763 224.789C66.9101 219.99 63.5625 214.937 63.5625 211.875V199.629ZM275.438 199.629V211.875C275.438 214.947 272.09 219.99 262.524 224.789C252.968 229.588 238.603 233.062 222.469 233.062C210.424 233.062 199.544 231.368 190.688 228.422V207.902C200.413 210.466 211.006 211.875 222.469 211.875C241.463 211.875 258.678 208.316 272.132 201.61C273.287 201.038 274.325 200.243 275.438 199.629V199.629ZM63.5625 242.004C64.6748 242.618 65.713 243.413 66.8783 243.985C80.3218 250.691 97.5367 254.25 116.531 254.25C135.526 254.25 152.741 250.691 166.195 243.985C167.349 243.413 168.388 242.618 169.5 242.004V254.25C169.5 257.322 166.152 262.365 156.586 267.164C147.031 271.963 132.666 275.438 116.531 275.438C100.397 275.438 86.0318 271.963 76.4763 267.164C66.9101 262.365 63.5625 257.312 63.5625 254.25V242.004Z" fill="#074366"/>
</svg>
