<svg width="15" height="12" viewBox="0 0 15 12" fill="none" xmlns="http://www.w3.org/2000/svg">
<path d="M11.25 10.25H1.5V3.50003H3.44625C3.44625 3.50003 3.963 2.82803 5.07375 2.00003H0.75C0.551088 2.00003 0.360322 2.07905 0.21967 2.2197C0.0790176 2.36035 0 2.55112 0 2.75003L0 11C0 11.1989 0.0790176 11.3897 0.21967 11.5304C0.360322 11.671 0.551088 11.75 0.75 11.75H12C12.1989 11.75 12.3897 11.671 12.5303 11.5304C12.671 11.3897 12.75 11.1989 12.75 11V8.19053L11.25 9.42428V10.25ZM10.0208 5.03753V7.70078L15 3.80003L10.0208 0.0507812V2.39903C3.975 2.39903 3.975 8.37503 3.975 8.37503C5.6865 5.56403 6.7395 5.03753 10.0208 5.03753Z" fill="#D6A84C"/>
</svg>
