<svg width="125" height="126" viewBox="0 0 125 126" fill="none" xmlns="http://www.w3.org/2000/svg">
<path d="M98.9583 115.083H26.0416C21.8976 115.083 17.9233 113.437 14.9931 110.507C12.0628 107.577 10.4166 103.602 10.4166 99.4584V16.1251C10.4166 14.7437 10.9654 13.419 11.9421 12.4422C12.9189 11.4655 14.2436 10.9167 15.625 10.9167H88.5416C89.923 10.9167 91.2477 11.4655 92.2245 12.4422C93.2012 13.419 93.75 14.7437 93.75 16.1251V78.6251H114.583V99.4584C114.583 103.602 112.937 107.577 110.007 110.507C107.077 113.437 103.102 115.083 98.9583 115.083ZM93.75 89.0417V99.4584C93.75 100.84 94.2987 102.165 95.2754 103.141C96.2522 104.118 97.577 104.667 98.9583 104.667C100.34 104.667 101.664 104.118 102.641 103.141C103.618 102.165 104.167 100.84 104.167 99.4584V89.0417H93.75ZM83.3333 104.667V21.3334H20.8333V99.4584C20.8333 100.84 21.382 102.165 22.3588 103.141C23.3355 104.118 24.6603 104.667 26.0416 104.667H83.3333ZM31.25 36.9584H72.9166V47.3751H31.25V36.9584ZM31.25 57.7917H72.9166V68.2084H31.25V57.7917ZM31.25 78.6251H57.2916V89.0417H31.25V78.6251Z" fill="#D6A84C"/>
</svg>
