<svg width="40" height="42" viewBox="0 0 40 42" fill="none" xmlns="http://www.w3.org/2000/svg">
<path d="M35.7976 37.6665C35.7976 37.9428 35.6841 38.2077 35.4821 38.4031C35.2802 38.5984 35.0062 38.7082 34.7206 38.7082H8.87314C8.58751 38.7082 8.31358 38.5984 8.11161 38.4031C7.90963 38.2077 7.79617 37.9428 7.79617 37.6665V31.4165H4.56523V37.6665C4.56523 38.7716 5.0191 39.8314 5.82699 40.6128C6.63488 41.3942 7.73061 41.8332 8.87314 41.8332H34.7206C35.8631 41.8332 36.9589 41.3942 37.7668 40.6128C38.5746 39.8314 39.0285 38.7716 39.0285 37.6665V16.4748C39.0283 15.3699 38.5742 14.3102 37.7663 13.529L25.2109 1.38734C25.1776 1.35739 25.1423 1.32956 25.1053 1.304C25.0787 1.28411 25.0528 1.26326 25.0278 1.2415C24.8796 1.10623 24.722 0.980941 24.5561 0.866504C24.5009 0.832091 24.4434 0.801461 24.3838 0.774837L24.2804 0.724837L24.1727 0.664421C24.0564 0.599837 23.9379 0.53317 23.8151 0.48317C23.3862 0.317469 22.9322 0.220367 22.4711 0.19567C22.4285 0.192988 22.386 0.18812 22.344 0.181087C22.2855 0.172354 22.2265 0.167482 22.1674 0.166504H8.87314C7.73061 0.166504 6.63488 0.605491 5.82699 1.38689C5.0191 2.16829 4.56523 3.2281 4.56523 4.33317V23.0832H7.79617V4.33317C7.79617 4.0569 7.90963 3.79195 8.11161 3.5966C8.31358 3.40125 8.58751 3.2915 8.87314 3.2915H21.7969V12.6665C21.7969 13.7716 22.2507 14.8314 23.0586 15.6128C23.8665 16.3942 24.9623 16.8332 26.1048 16.8332H35.7976V37.6665ZM25.0278 5.62692L33.3808 13.7082H26.1048C25.8191 13.7082 25.5452 13.5984 25.3432 13.4031C25.1413 13.2077 25.0278 12.9428 25.0278 12.6665V5.62692ZM14.7965 19.9582C14.3681 19.9582 13.9572 20.1228 13.6542 20.4158C13.3513 20.7088 13.1811 21.1063 13.1811 21.5207C13.1811 21.9351 13.3513 22.3325 13.6542 22.6255C13.9572 22.9186 14.3681 23.0832 14.7965 23.0832H28.7972C29.2257 23.0832 29.6366 22.9186 29.9395 22.6255C30.2425 22.3325 30.4127 21.9351 30.4127 21.5207C30.4127 21.1063 30.2425 20.7088 29.9395 20.4158C29.6366 20.1228 29.2257 19.9582 28.7972 19.9582H14.7965ZM1.87279 25.6873C1.44434 25.6873 1.03344 25.852 0.730483 26.145C0.427524 26.438 0.257324 26.8354 0.257324 27.2498C0.257324 27.6642 0.427524 28.0617 0.730483 28.3547C1.03344 28.6477 1.44434 28.8123 1.87279 28.8123H15.8735C16.3019 28.8123 16.7128 28.6477 17.0158 28.3547C17.3188 28.0617 17.489 27.6642 17.489 27.2498C17.489 26.8354 17.3188 26.438 17.0158 26.145C16.7128 25.852 16.3019 25.6873 15.8735 25.6873H1.87279ZM14.7965 31.4165C14.3681 31.4165 13.9572 31.5811 13.6542 31.8742C13.3513 32.1672 13.1811 32.5646 13.1811 32.979C13.1811 33.3934 13.3513 33.7908 13.6542 34.0839C13.9572 34.3769 14.3681 34.5415 14.7965 34.5415H28.7972C29.2257 34.5415 29.6366 34.3769 29.9395 34.0839C30.2425 33.7908 30.4127 33.3934 30.4127 32.979C30.4127 32.5646 30.2425 32.1672 29.9395 31.8742C29.6366 31.5811 29.2257 31.4165 28.7972 31.4165H14.7965Z" fill="#D6A84C"/>
</svg>
