<svg width="50" height="50" viewBox="0 0 50 50" fill="none" xmlns="http://www.w3.org/2000/svg">
<path d="M34.7557 0.00195112C26.3365 0.00195112 19.5114 3.76571 19.5114 8.41528C19.5114 13.0649 26.3385 16.8306 34.7557 16.8306C43.1749 16.8306 50 13.0649 50 8.41528C50 3.76571 43.173 0 34.7557 0V0.00195112ZM50 10.9147C49.9961 15.5643 43.1749 19.33 34.7557 19.33C26.3599 19.33 19.5505 15.6052 19.5114 10.9771V14.2687C19.5114 16.255 20.7836 18.0734 22.8674 19.5134C24.9746 20.087 26.8516 20.8831 28.4145 21.8899C30.352 22.3816 32.4826 22.682 34.7557 22.682C43.1749 22.682 50 18.9183 50 14.2687V10.9147ZM50 16.7681C50 21.4177 43.1749 25.1834 34.7557 25.1834C33.7314 25.1834 32.7363 25.1073 31.7685 25C32.5322 26.0285 33.0532 27.2165 33.2924 28.475C33.7782 28.5023 34.2582 28.5355 34.7557 28.5355C43.1749 28.5355 50 24.7717 50 20.1221V16.7681ZM15.2443 21.4626C6.8251 21.4626 0 25.2283 0 29.8779C0 34.5274 6.82705 38.2931 15.2443 38.2931C23.6635 38.2931 30.4886 34.5274 30.4886 29.8779C30.4886 25.2283 23.6615 21.4626 15.2443 21.4626ZM50 22.6216C49.9961 27.2711 43.1749 31.0368 34.7557 31.0368C34.266 31.0368 33.7704 31.0017 33.2924 30.9744C33.2709 31.1207 33.2592 31.3159 33.2319 31.4622C33.3294 31.7568 33.4133 32.0475 33.4133 32.3792V34.3304C33.8562 34.3518 34.3011 34.3889 34.7557 34.3889C43.1749 34.3889 50 30.6251 50 25.9756V22.6216ZM50 28.475C49.9961 33.1246 43.1749 36.8903 34.7557 36.8903C34.266 36.8903 33.7704 36.8552 33.2924 36.8278C33.2709 36.9742 33.2592 37.1693 33.2319 37.3156C33.3294 37.6083 33.4133 37.901 33.4133 38.2327V40.1838C33.8562 40.2053 34.3011 40.2423 34.7557 40.2423C43.1749 40.2423 50 36.4786 50 31.829V28.475ZM30.4886 32.3773C30.4847 37.0269 23.6635 40.7926 15.2443 40.7926C6.84851 40.7926 0.0390229 37.0678 0 32.4378V35.7313C0 40.3809 6.82315 44.1466 15.2443 44.1466C23.6654 44.1466 30.4886 40.3809 30.4886 35.7313V32.3773ZM30.4886 38.2307C30.4847 42.8803 23.6635 46.646 15.2443 46.646C6.84851 46.646 0.0390229 42.9213 0 38.2912V41.5847C0 46.2343 6.82315 50 15.2443 50C23.6654 50 30.4886 46.2343 30.4886 41.5847V38.2307Z" fill="#D6A84C"/>
</svg>
