<svg width="40" height="39" viewBox="0 0 40 39" fill="none" xmlns="http://www.w3.org/2000/svg">
<path d="M23.993 1.73757e-06C27.6528 -0.00166233 31.2026 1.19198 34.0503 3.38186C36.898 5.57174 38.8715 8.62547 39.6417 12.0338C40.4119 15.442 39.9321 18.9988 38.2825 22.1109C36.6329 25.223 33.9131 27.7023 30.5767 29.1353C29.5103 31.3813 27.8879 33.3474 25.8487 34.8649C23.8094 36.3824 21.4143 37.4061 18.8685 37.8482C16.3228 38.2902 13.7025 38.1375 11.2323 37.403C8.76215 36.6685 6.51586 35.3743 4.68609 33.6312C2.85632 31.8882 1.49767 29.7483 0.726667 27.3952C-0.0443351 25.0421 -0.204682 22.546 0.259377 20.1209C0.723436 17.6958 1.79805 15.4141 3.39106 13.4715C4.98408 11.5289 7.04794 9.9834 9.40566 8.96749C10.6739 6.29437 12.7247 4.02652 15.3121 2.43593C17.8995 0.845337 20.9136 -0.000451641 23.993 1.73757e-06ZM17.9933 13.336H13.9935V15.2411C12.6937 15.2381 11.4439 15.7174 10.5088 16.5773C9.57369 17.4372 9.02686 18.6102 8.98421 19.8477C8.94156 21.0851 9.40644 22.2898 10.2803 23.2063C11.1542 24.1228 12.3684 24.6791 13.6655 24.7573L13.9935 24.7668H17.9933L18.1733 24.7821C18.4038 24.8218 18.6124 24.9375 18.7626 25.1088C18.9128 25.2801 18.9951 25.4962 18.9951 25.7194C18.9951 25.9426 18.9128 26.1587 18.7626 26.33C18.6124 26.5013 18.4038 26.6169 18.1733 26.6567L17.9933 26.672H9.99364V30.4822H13.9935V32.3874H17.9933V30.4822C19.293 30.4852 20.5429 30.006 21.478 29.1461C22.4131 28.2862 22.9599 27.1132 23.0025 25.8757C23.0452 24.6382 22.5803 23.4336 21.7064 22.5171C20.8326 21.6006 19.6184 21.0443 18.3213 20.9661L17.9933 20.9565H13.9935L13.8135 20.9413C13.5829 20.9015 13.3743 20.7859 13.2241 20.6146C13.074 20.4433 12.9917 20.2272 12.9917 20.004C12.9917 19.7808 13.074 19.5647 13.2241 19.3933C13.3743 19.222 13.5829 19.1064 13.8135 19.0666L13.9935 19.0514H21.9931V15.2411H17.9933V13.336ZM23.993 3.81028C22.2985 3.80839 20.6228 4.14928 19.0769 4.8104C17.531 5.47153 16.15 6.43781 15.0254 7.64533C17.2858 7.51461 19.5497 7.8425 21.6671 8.60732C23.7846 9.37214 25.7076 10.5565 27.3088 12.082C28.91 13.6075 30.153 15.4394 30.9556 17.4567C31.7582 19.4739 32.1022 21.6305 31.9647 23.7838C33.783 22.2437 35.067 20.2134 35.6462 17.9623C36.2254 15.7111 36.0725 13.3453 35.2078 11.1788C34.3431 9.01232 32.8075 7.1474 30.8046 5.83141C28.8017 4.51542 26.4261 3.81055 23.993 3.81028Z" fill="#D6A84C"/>
</svg>
