<svg width="16" height="15" viewBox="0 0 16 15" fill="none" xmlns="http://www.w3.org/2000/svg">
<path d="M7.54808 0C3.38607 0 0 3.3645 0 7.5C0 11.6355 3.38607 15 7.54808 15C11.7101 15 15.0962 11.6355 15.0962 7.5C15.0962 3.3645 11.7101 0 7.54808 0ZM7.54808 3.075C7.74215 3.075 7.93186 3.13218 8.09323 3.23932C8.2546 3.34645 8.38037 3.49873 8.45463 3.67688C8.5289 3.85504 8.54833 4.05108 8.51047 4.24021C8.47261 4.42934 8.37916 4.60307 8.24192 4.73943C8.10469 4.87579 7.92985 4.96865 7.73951 5.00627C7.54917 5.04389 7.35187 5.02458 7.17257 4.95078C6.99327 4.87699 6.84002 4.75202 6.7322 4.59168C6.62438 4.43134 6.56683 4.24284 6.56683 4.05C6.56683 3.79141 6.67021 3.54342 6.85423 3.36057C7.03825 3.17772 7.28783 3.075 7.54808 3.075ZM9.35962 11.55H6.03846C5.87831 11.55 5.72472 11.4868 5.61148 11.3743C5.49823 11.2617 5.43462 11.1091 5.43462 10.95C5.43462 10.7909 5.49823 10.6383 5.61148 10.5257C5.72472 10.4132 5.87831 10.35 6.03846 10.35H7.09519V7.05H6.49135C6.3312 7.05 6.17761 6.98679 6.06436 6.87426C5.95112 6.76174 5.8875 6.60913 5.8875 6.45C5.8875 6.29087 5.95112 6.13826 6.06436 6.02574C6.17761 5.91321 6.3312 5.85 6.49135 5.85H7.69904C7.85919 5.85 8.01278 5.91321 8.12602 6.02574C8.23927 6.13826 8.30288 6.29087 8.30288 6.45V10.35H9.35962C9.51976 10.35 9.67336 10.4132 9.7866 10.5257C9.89984 10.6383 9.96346 10.7909 9.96346 10.95C9.96346 11.1091 9.89984 11.2617 9.7866 11.3743C9.67336 11.4868 9.51976 11.55 9.35962 11.55Z" fill="#D6A84C"/>
</svg>
