<svg width="51" height="50" viewBox="0 0 51 50" fill="none" xmlns="http://www.w3.org/2000/svg">
<path d="M17.4278 50C19.3252 50 20.8633 48.4794 20.8633 46.6037C20.8633 44.7281 19.3252 43.2075 17.4278 43.2075C15.5303 43.2075 13.9922 44.7281 13.9922 46.6037C13.9922 48.4794 15.5303 50 17.4278 50Z" fill="#D6A84C"/>
<path d="M41.4766 50C43.374 50 44.9122 48.4794 44.9122 46.6037C44.9122 44.7281 43.374 43.2075 41.4766 43.2075C39.5792 43.2075 38.041 44.7281 38.041 46.6037C38.041 48.4794 39.5792 50 41.4766 50Z" fill="#D6A84C"/>
<path d="M8.80457 3.81792C8.72676 3.43311 8.51654 3.08682 8.20964 2.83792C7.90274 2.58902 7.51811 2.45287 7.12114 2.45264H0.25V5.84886H5.71256L12.3089 38.4458C12.3867 38.8307 12.5969 39.1769 12.9038 39.4258C13.2107 39.6748 13.5953 39.8109 13.9923 39.8111H44.9124V36.4149H15.4009L14.0266 29.6224H44.9124C45.3032 29.6224 45.6822 29.4906 45.987 29.2489C46.2918 29.0072 46.5042 28.6699 46.589 28.2928L50.4849 10.9432H46.9686L43.5347 26.2262H13.3395L8.80457 3.81792Z" fill="#D6A84C"/>
<path fill-rule="evenodd" clip-rule="evenodd" d="M32.862 10.5291C32.6423 9.82267 32.2353 9.21109 31.6972 8.77853C31.159 8.34596 30.5162 8.11368 29.8571 8.11367V7.20801H28.2638V8.11367C27.4186 8.11367 26.6081 8.49534 26.0105 9.17472C25.4129 9.85409 25.0771 10.7755 25.0771 11.7363C25.0771 12.6971 25.4129 13.6185 26.0105 14.2979C26.6081 14.9773 27.4186 15.359 28.2638 15.359V18.9816C27.5707 18.9816 26.9804 18.479 26.7605 17.7743C26.7279 17.6591 26.6752 17.5524 26.6057 17.4606C26.5362 17.3689 26.4512 17.2939 26.3557 17.2402C26.2603 17.1864 26.1563 17.155 26.05 17.1477C25.9437 17.1404 25.8371 17.1574 25.7367 17.1978C25.6363 17.2381 25.544 17.3009 25.4653 17.3826C25.3866 17.4642 25.3231 17.5629 25.2785 17.6729C25.2339 17.7829 25.2092 17.9019 25.2059 18.0229C25.2025 18.144 25.2205 18.2645 25.2588 18.3775C25.4785 19.0839 25.8855 19.6955 26.4237 20.1281C26.9618 20.5606 27.6047 20.7929 28.2638 20.7929V21.6986H29.8571V20.7929C30.7022 20.7929 31.5127 20.4112 32.1103 19.7319C32.708 19.0525 33.0437 18.1311 33.0437 17.1703C33.0437 16.2095 32.708 15.2881 32.1103 14.6087C31.5127 13.9293 30.7022 13.5476 29.8571 13.5476V9.92499C30.5502 9.92499 31.1405 10.4276 31.3604 11.1322C31.393 11.2475 31.4456 11.3542 31.5151 11.4459C31.5846 11.5377 31.6696 11.6127 31.7651 11.6664C31.8605 11.7202 31.9645 11.7516 32.0708 11.7589C32.1772 11.7662 32.2837 11.7491 32.3841 11.7088C32.4846 11.6685 32.5769 11.6056 32.6556 11.524C32.7343 11.4424 32.7978 11.3437 32.8423 11.2337C32.8869 11.1237 32.9116 11.0047 32.915 10.8837C32.9184 10.7626 32.9004 10.6421 32.862 10.5291ZM28.2638 9.92499C27.8412 9.92499 27.4359 10.1158 27.1371 10.4555C26.8383 10.7952 26.6705 11.2559 26.6705 11.7363C26.6705 12.2167 26.8383 12.6774 27.1371 13.0171C27.4359 13.3568 27.8412 13.5476 28.2638 13.5476V9.92499ZM29.8571 18.9816C30.2796 18.9816 30.6849 18.7908 30.9837 18.4511C31.2825 18.1114 31.4504 17.6507 31.4504 17.1703C31.4504 16.6899 31.2825 16.2292 30.9837 15.8895C30.6849 15.5498 30.2796 15.359 29.8571 15.359V18.9816Z" fill="#D6A84C"/>
<path fill-rule="evenodd" clip-rule="evenodd" d="M41.0105 14.4531C41.0105 21.9556 35.6601 28.038 29.0606 28.038C22.4612 28.038 17.1108 21.9556 17.1108 14.4531C17.1108 6.95058 22.4612 0.868164 29.0606 0.868164C35.6601 0.868164 41.0105 6.95058 41.0105 14.4531ZM39.4171 14.4531C39.4171 20.9557 34.7806 26.2267 29.0606 26.2267C23.3407 26.2267 18.7041 20.9557 18.7041 14.4531C18.7041 7.95043 23.3407 2.67948 29.0606 2.67948C34.7806 2.67948 39.4171 7.95043 39.4171 14.4531Z" fill="#D6A84C"/>
</svg>
