<svg width="23" height="22" viewBox="0 0 23 22" fill="none" xmlns="http://www.w3.org/2000/svg">
<path d="M21.95 19.0246V11.2947C21.95 10.7569 21.837 10.2248 21.6178 9.73086C21.3986 9.23697 21.0778 8.79172 20.6752 8.42239L13.1737 1.53997C12.7959 1.19321 12.2957 1 11.7757 1C11.2558 1 10.7556 1.19321 10.3778 1.53997L2.87633 8.42239C2.47366 8.79172 2.1529 9.23697 1.93369 9.73086C1.71448 10.2248 1.60144 10.7569 1.6015 11.2947V19.0246C1.6015 19.5485 1.81589 20.0509 2.19749 20.4214C2.5791 20.7919 3.09667 21 3.63635 21H19.9151C20.4548 21 20.9724 20.7919 21.354 20.4214C21.7356 20.0509 21.95 19.5485 21.95 19.0246Z" stroke="#FFFFFF" stroke-width="2" stroke-linecap="round" stroke-linejoin="round"/>
</svg>
