<svg width="30" height="30" viewBox="0 0 30 30" fill="none" xmlns="http://www.w3.org/2000/svg">
<path d="M26.5712 13.7025C27.1637 14.4775 27.1637 15.5238 26.5712 16.2975C24.705 18.7338 20.2275 23.75 15 23.75C9.7725 23.75 5.295 18.7338 3.42875 16.2975C3.14048 15.9264 2.98399 15.4699 2.98399 15C2.98399 14.5301 3.14048 14.0736 3.42875 13.7025C5.295 11.2662 9.7725 6.25 15 6.25C20.2275 6.25 24.705 11.2662 26.5712 13.7025V13.7025Z" stroke="#04042D" stroke-width="2" stroke-linecap="round" stroke-linejoin="round"/>
<path d="M15 18.75C17.0711 18.75 18.75 17.0711 18.75 15C18.75 12.9289 17.0711 11.25 15 11.25C12.9289 11.25 11.25 12.9289 11.25 15C11.25 17.0711 12.9289 18.75 15 18.75Z" stroke="#04042D" stroke-width="2" stroke-linecap="round" stroke-linejoin="round"/>
</svg>
