<svg width="131" height="131" viewBox="0 0 131 131" fill="none" xmlns="http://www.w3.org/2000/svg">
<path d="M73.9434 69.8496L52.4512 91.3418C51.8794 91.9115 51.201 92.363 50.4547 92.6703C49.7083 92.9776 48.9087 93.1348 48.1016 93.1328C46.4736 93.1258 44.9128 92.4831 43.752 91.3418C43.1795 90.7713 42.7253 90.0934 42.4153 89.347C42.1054 88.6006 41.9459 87.8004 41.9459 86.9922C41.9459 86.184 42.1054 85.3838 42.4153 84.6373C42.7253 83.8909 43.1795 83.2131 43.752 82.6426L54.7539 71.6406H12.2812C10.6527 71.6406 9.09076 70.9937 7.93917 69.8421C6.78758 68.6905 6.14063 67.1286 6.14062 65.5C6.14063 63.8714 6.78758 62.3095 7.93917 61.1579C9.09076 60.0063 10.6527 59.3594 12.2812 59.3594H54.7539L43.752 48.3574C42.5984 47.2038 41.9503 45.6392 41.9503 44.0078C41.9503 42.3764 42.5984 40.8118 43.752 39.6582C44.9055 38.5046 46.4701 37.8565 48.1016 37.8565C49.733 37.8565 51.2976 38.5046 52.4512 39.6582L73.9434 61.1504C74.5158 61.7209 74.9701 62.3988 75.28 63.1452C75.5899 63.8916 75.7495 64.6918 75.7495 65.5C75.7495 66.3082 75.5899 67.1084 75.28 67.8548C74.9701 68.6012 74.5158 69.2791 73.9434 69.8496V69.8496ZM98.25 14.3281H69.5938C67.9652 14.3281 66.4033 14.9751 65.2517 16.1267C64.1001 17.2783 63.4531 18.8402 63.4531 20.4688C63.4531 22.0973 64.1001 23.6592 65.2517 24.8108C66.4033 25.9624 67.9652 26.6094 69.5938 26.6094H96.2031V104.391H69.5938C67.9652 104.391 66.4033 105.038 65.2517 106.189C64.1001 107.341 63.4531 108.903 63.4531 110.531C63.4531 112.16 64.1001 113.722 65.2517 114.873C66.4033 116.025 67.9652 116.672 69.5938 116.672H98.25C100.96 116.658 103.556 115.576 105.472 113.659C107.388 111.743 108.471 109.148 108.484 106.438V24.5625C108.471 21.8523 107.388 19.257 105.472 17.3406C103.556 15.4242 100.96 14.3416 98.25 14.3281V14.3281Z" fill="#D6A84C"/>
</svg>
