<svg width="27" height="27" viewBox="0 0 27 27" fill="none" xmlns="http://www.w3.org/2000/svg">
<path d="M12.7438 24.25H4.25C3.58696 24.25 2.95107 23.9866 2.48223 23.5178C2.01339 23.0489 1.75 22.413 1.75 21.75V6.75C1.75 6.08696 2.01339 5.45107 2.48223 4.98223C2.95107 4.51339 3.58696 4.25 4.25 4.25H19.25C19.913 4.25 20.5489 4.51339 21.0178 4.98223C21.4866 5.45107 21.75 6.08696 21.75 6.75V11.75" stroke="#D6A84C" stroke-width="2.5" stroke-linecap="round" stroke-linejoin="round"/>
<path d="M20.5 25.5C23.2614 25.5 25.5 23.2614 25.5 20.5C25.5 17.7386 23.2614 15.5 20.5 15.5C17.7386 15.5 15.5 17.7386 15.5 20.5C15.5 23.2614 17.7386 25.5 20.5 25.5Z" stroke="#D6A84C" stroke-width="2.5" stroke-linecap="round" stroke-linejoin="round"/>
<path d="M16.75 1.75V6.75M6.75 1.75V6.75M1.75 11.75H21.75M20.5 18.62V20.5L21.75 21.75" stroke="#D6A84C" stroke-width="2.5" stroke-linecap="round" stroke-linejoin="round"/>
</svg>
