<svg width="23" height="20" viewBox="0 0 23 20" fill="none" xmlns="http://www.w3.org/2000/svg">
<path d="M15.4804 11.6667C15.9763 11.6667 16.3864 11.5093 16.7107 11.1944C17.035 10.8796 17.1972 10.4815 17.1972 10C17.1972 9.51852 17.035 9.12037 16.7107 8.80556C16.3864 8.49074 15.9763 8.33333 15.4804 8.33333C14.9844 8.33333 14.5743 8.49074 14.25 8.80556C13.9257 9.12037 13.7636 9.51852 13.7636 10C13.7636 10.4815 13.9257 10.8796 14.25 11.1944C14.5743 11.5093 14.9844 11.6667 15.4804 11.6667ZM2.89056 17.7778V2.22222V17.7778ZM2.89056 20C2.26107 20 1.72199 19.7826 1.27334 19.3478C0.825447 18.9122 0.601501 18.3889 0.601501 17.7778V2.22222C0.601501 1.61111 0.825447 1.08778 1.27334 0.652222C1.72199 0.217407 2.26107 0 2.89056 0H18.9139C19.5434 0 20.0825 0.217407 20.5312 0.652222C20.9791 1.08778 21.203 1.61111 21.203 2.22222V5H18.9139V2.22222H2.89056V17.7778H18.9139V15H21.203V17.7778C21.203 18.3889 20.9791 18.9122 20.5312 19.3478C20.0825 19.7826 19.5434 20 18.9139 20H2.89056ZM12.0468 15.5556C11.4173 15.5556 10.8786 15.3381 10.4307 14.9033C9.98205 14.4678 9.75772 13.9444 9.75772 13.3333V6.66667C9.75772 6.05556 9.98205 5.53222 10.4307 5.09667C10.8786 4.66185 11.4173 4.44444 12.0468 4.44444H20.0585C20.688 4.44444 21.227 4.66185 21.6757 5.09667C22.1236 5.53222 22.3475 6.05556 22.3475 6.66667V13.3333C22.3475 13.9444 22.1236 14.4678 21.6757 14.9033C21.227 15.3381 20.688 15.5556 20.0585 15.5556H12.0468Z" fill="#D6A84C"/>
</svg>
