<svg width="448" height="448" viewBox="0 0 448 448" fill="none" xmlns="http://www.w3.org/2000/svg">
<path d="M162.817 101.685L303.147 20.6665L350.036 101.888L162.817 101.685V101.685Z" stroke="white" stroke-width="40.6667" stroke-linecap="round" stroke-linejoin="round"/>
<path d="M20.667 122.333C20.667 116.941 22.8092 111.769 26.6225 107.955C30.4357 104.142 35.6076 102 41.0003 102H407C412.393 102 417.565 104.142 421.378 107.955C425.191 111.769 427.334 116.941 427.334 122.333V407C427.334 412.393 425.191 417.565 421.378 421.378C417.565 425.191 412.393 427.333 407 427.333H41.0003C35.6076 427.333 30.4357 425.191 26.6225 421.378C22.8092 417.565 20.667 412.393 20.667 407V122.333Z" stroke="white" stroke-width="40.6667" stroke-linejoin="round"/>
<path d="M338.375 315.5H427.334V213.833H338.375C308.892 213.833 285 236.597 285 264.667C285 292.737 308.892 315.5 338.375 315.5Z" stroke="white" stroke-width="40.6667" stroke-linejoin="round"/>
<path d="M427.333 147.75V391.75" stroke="white" stroke-width="40.6667" stroke-linecap="round"/>
</svg>
