<svg width="51" height="50" viewBox="0 0 51 50" fill="none" xmlns="http://www.w3.org/2000/svg">
<path d="M17.1778 50C19.0752 50 20.6133 48.4794 20.6133 46.6037C20.6133 44.7281 19.0752 43.2075 17.1778 43.2075C15.2803 43.2075 13.7422 44.7281 13.7422 46.6037C13.7422 48.4794 15.2803 50 17.1778 50Z" fill="white"/>
<path d="M41.2266 50C43.124 50 44.6622 48.4794 44.6622 46.6037C44.6622 44.7281 43.124 43.2075 41.2266 43.2075C39.3292 43.2075 37.791 44.7281 37.791 46.6037C37.791 48.4794 39.3292 50 41.2266 50Z" fill="white"/>
<path d="M8.55457 3.81841C8.47676 3.4336 8.26654 3.0873 7.95964 2.8384C7.65274 2.5895 7.26811 2.45336 6.87114 2.45312H0V5.84935H5.46256L12.0589 38.4463C12.1367 38.8311 12.3469 39.1774 12.6538 39.4263C12.9607 39.6752 13.3453 39.8114 13.7423 39.8116H44.6624V36.4154H15.1509L13.7766 29.6229H44.6624C45.0532 29.6229 45.4322 29.4911 45.737 29.2494C46.0418 29.0076 46.2542 28.6704 46.339 28.2933L50.2349 10.9437H46.7186L43.2847 26.2267H13.0895L8.55457 3.81841Z" fill="white"/>
<path fill-rule="evenodd" clip-rule="evenodd" d="M32.6125 10.5291C32.3928 9.82267 31.9858 9.21109 31.4477 8.77853C30.9095 8.34596 30.2666 8.11368 29.6076 8.11367V7.20801H28.0143V8.11367C27.1691 8.11367 26.3586 8.49534 25.761 9.17472C25.1634 9.85409 24.8276 10.7755 24.8276 11.7363C24.8276 12.6971 25.1634 13.6185 25.761 14.2979C26.3586 14.9773 27.1691 15.359 28.0143 15.359V18.9816C27.3212 18.9816 26.7308 18.479 26.511 17.7743C26.4783 17.6591 26.4257 17.5524 26.3562 17.4606C26.2867 17.3689 26.2017 17.2939 26.1062 17.2402C26.0108 17.1864 25.9068 17.155 25.8005 17.1477C25.6942 17.1404 25.5876 17.1574 25.4872 17.1978C25.3868 17.2381 25.2945 17.3009 25.2158 17.3826C25.1371 17.4642 25.0735 17.5629 25.029 17.6729C24.9844 17.7829 24.9597 17.9019 24.9563 18.0229C24.953 18.144 24.971 18.2645 25.0093 18.3775C25.229 19.0839 25.636 19.6955 26.1741 20.1281C26.7123 20.5606 27.3552 20.7929 28.0143 20.7929V21.6986H29.6076V20.7929C30.4527 20.7929 31.2632 20.4112 31.8608 19.7319C32.4584 19.0525 32.7942 18.1311 32.7942 17.1703C32.7942 16.2095 32.4584 15.2881 31.8608 14.6087C31.2632 13.9293 30.4527 13.5476 29.6076 13.5476V9.92499C30.3006 9.92499 30.891 10.4276 31.1108 11.1322C31.1435 11.2475 31.1961 11.3542 31.2656 11.4459C31.3351 11.5377 31.4201 11.6127 31.5156 11.6664C31.611 11.7202 31.715 11.7516 31.8213 11.7589C31.9276 11.7662 32.0342 11.7491 32.1346 11.7088C32.235 11.6685 32.3273 11.6056 32.4061 11.524C32.4848 11.4424 32.5483 11.3437 32.5928 11.2337C32.6374 11.1237 32.6621 11.0047 32.6655 10.8837C32.6689 10.7626 32.6509 10.6421 32.6125 10.5291ZM28.0143 9.92499C27.5917 9.92499 27.1864 10.1158 26.8876 10.4555C26.5888 10.7952 26.4209 11.2559 26.4209 11.7363C26.4209 12.2167 26.5888 12.6774 26.8876 13.0171C27.1864 13.3568 27.5917 13.5476 28.0143 13.5476V9.92499ZM29.6076 18.9816C30.0301 18.9816 30.4354 18.7908 30.7342 18.4511C31.033 18.1114 31.2009 17.6507 31.2009 17.1703C31.2009 16.6899 31.033 16.2292 30.7342 15.8895C30.4354 15.5498 30.0301 15.359 29.6076 15.359V18.9816Z" fill="white"/>
<path fill-rule="evenodd" clip-rule="evenodd" d="M40.7609 14.4531C40.7609 21.9556 35.4106 28.038 28.8111 28.038C22.2117 28.038 16.8613 21.9556 16.8613 14.4531C16.8613 6.95058 22.2117 0.868164 28.8111 0.868164C35.4106 0.868164 40.7609 6.95058 40.7609 14.4531ZM39.1676 14.4531C39.1676 20.9557 34.5311 26.2267 28.8111 26.2267C23.0912 26.2267 18.4546 20.9557 18.4546 14.4531C18.4546 7.95043 23.0912 2.67948 28.8111 2.67948C34.5311 2.67948 39.1676 7.95043 39.1676 14.4531Z" fill="white"/>
</svg>
